<svg id="Layer_1" enable-background="new 0 0 511 511" height="512" viewBox="0 0 511 511" width="512" xmlns="http://www.w3.org/2000/svg"><g><path d="m363.808 295h15v16h-15z"/><path d="m58.808 15h209v96h96v168h15v-178.606l-100.393-100.394h-234.607v463h184v-15h-169zm224 10.606 70.394 70.394h-70.394z"/><path d="m387.808 438.5c36.875 0 66.417-16.26 67.656-16.952l11.728-6.548-11.728-6.548c-1.239-.692-30.781-16.952-67.656-16.952-2.259 0-4.489.063-6.688.177 2.701-2.305 5.376-4.759 7.991-7.374 27.572-27.573 37.503-61.814 37.912-63.258l3.662-12.923-12.923 3.662c-1.444.409-35.686 10.339-63.259 37.913-2.615 2.615-5.069 5.29-7.374 7.991.115-2.199.177-4.429.177-6.688 0-36.875-16.26-66.417-16.952-67.657l-6.548-11.727-6.548 11.727c-.692 1.24-16.952 30.782-16.952 67.657 0 19.657 4.62 37.227 9.04 49.54-1.571-.564-3.23-1.13-4.966-1.691-10.679-5.446-23.735-13.616-35.271-25.152-13.94-13.939-22.969-30.101-28.209-41.602 11.502 5.24 27.662 14.269 41.602 28.208l10.607-10.606c-27.573-27.573-61.814-37.503-63.259-37.913l-12.923-3.662 3.662 12.923c.409 1.444 10.34 35.685 37.912 63.258 2.615 2.615 5.29 5.07 7.991 7.374-2.199-.115-4.429-.177-6.688-.177-36.875 0-66.417 16.26-67.656 16.952l-11.724 6.548 11.728 6.548c1.239.692 30.781 16.952 67.656 16.952 3.526 0 6.984-.151 10.358-.42-.556.533-1.112 1.067-1.662 1.617-23.205 23.205-31.567 52.042-31.912 53.258l-3.662 12.923 12.923-3.662c1.216-.345 30.053-8.708 53.259-31.913 7.036-7.036 12.699-14.587 17.196-21.731v62.428h15v-62.428c4.497 7.144 10.16 14.695 17.196 21.731 23.206 23.205 52.043 31.568 53.259 31.913l12.923 3.662-3.662-12.923c-.345-1.216-8.707-30.054-31.912-53.258-11.636-11.636-24.687-19.538-34.962-24.571 1.535-.71 3.135-1.479 4.791-2.309 10.548-3.32 24.139-6.318 38.867-6.318 17.932 0 34.192 4.442 45.305 8.5-11.113 4.058-27.373 8.5-45.305 8.5zm-22.696-78.197c13.939-13.939 30.101-22.969 41.602-28.209-5.24 11.503-14.269 27.663-28.209 41.603-11.544 11.544-24.604 19.712-35.286 25.157-1.73.559-3.384 1.124-4.95 1.686.562-1.566 1.127-3.219 1.685-4.948 5.445-10.684 13.612-23.744 25.158-35.289zm-41.293-54.637c4.055 11.084 8.489 27.323 8.489 45.334 0 14.722-2.995 28.313-6.313 38.858-.937 1.871-1.802 3.676-2.587 5.389-3.944-11.046-8.101-26.808-8.101-44.247.001-17.947 4.451-34.222 8.512-45.334zm-64.011 117.834c-17.932 0-34.192-4.442-45.305-8.5 11.113-4.058 27.373-8.5 45.305-8.5 14.723 0 28.313 2.995 38.858 6.313 1.66.831 3.263 1.602 4.801 2.313-.919.45-1.866.93-2.827 1.427-10.795 3.561-25.175 6.947-40.832 6.947zm28.696 36.197c-10.274 10.274-22.022 17.315-31.171 21.777 4.463-9.149 11.503-20.896 21.778-31.171 8.906-8.906 18.916-15.378 27.383-19.851 1.186-.401 2.327-.802 3.428-1.202-4.477 9.04-11.409 20.438-21.418 30.447zm101.779 21.777c-9.149-4.463-20.896-11.503-31.171-21.777-10.275-10.275-17.316-22.023-21.778-31.171 9.149 4.463 20.896 11.503 31.171 21.777 10.275 10.275 17.316 22.024 21.778 31.171z"/><path d="m83.808 48h80v15h-80z"/><path d="m83.808 80h128v15h-128z"/><path d="m131.308 128h-47v47h47zm-15 32h-17v-17h17z"/><path d="m147.808 128h192v15h-192z"/><path d="m147.808 160h160v15h-160z"/><path d="m84.308 239h47v-47h-47zm15-32h17v17h-17z"/><path d="m147.808 192h192v15h-192z"/><path d="m147.808 224h160v15h-160z"/><path d="m84.308 303h47v-47h-47zm15-32h17v17h-17z"/><path d="m147.808 256h160v15h-160z"/><path d="m147.808 288h128v15h-128z"/><path d="m131.308 320h-47v47h47zm-15 32h-17v-17h17z"/><path d="m147.808 320h48v15h-48z"/><path d="m147.808 352h64v15h-64z"/><path d="m83.808 400h16v15h-16z"/><path d="m115.808 400h16v15h-16z"/><path d="m147.808 400h16v15h-16z"/></g></svg>