<?xml version="1.0"?>
<svg xmlns="http://www.w3.org/2000/svg" xmlns:xlink="http://www.w3.org/1999/xlink" viewBox="0 0 512 512" width="512" height="512"><defs><linearGradient id="linear-gradient" x1="32.408" y1="498.333" x2="374.704" y2="156.037" gradientUnits="userSpaceOnUse"><stop offset="0" stop-color="#41dfd0"/><stop offset="1" stop-color="#ee83ef"/></linearGradient></defs><g id="gradient"><path d="M309.187,382.086l-13.557,24a8,8,0,1,0,13.932,7.869L323.151,389.9a87.45,87.45,0,0,0,20.968,31.894l18.165,17.54a8,8,0,0,0,13.556-5.894l-.294-16.81a87.292,87.292,0,0,0-5.54-29.107,89.684,89.684,0,0,0,58.364-10.647l7.211-4.093a8,8,0,0,0,1.275-13.016,90.475,90.475,0,0,0-61.026-21.748,79,79,0,0,0,14.109-37.082l4.166-37.98a8,8,0,0,0-12.8-7.233L350.925,278.9a79.026,79.026,0,0,0-24.473,31.229,90.484,90.484,0,0,0-50.133-41.035A8,8,0,0,0,265.83,276.9l.219,8.287a89.691,89.691,0,0,0,21.12,55.609,87.208,87.208,0,0,0-27.815,10.479L244.861,359.8a8,8,0,0,0,2.044,14.64l24.442,6.345A87.487,87.487,0,0,0,309.187,382.086Zm-4.041-26.83a8,8,0,0,0,5.117-14.286,73.739,73.739,0,0,1-28-52.075,74.455,74.455,0,0,1,38.042,48.83,8,8,0,0,0,15.763-1.168,63.091,63.091,0,0,1,24.559-44.94l15.536-11.853-2.131,19.425a63.091,63.091,0,0,1-25.806,44.235,8,8,0,0,0,7.138,14.1,74.46,74.46,0,0,1,61.46,7.369,73.743,73.743,0,0,1-59.017,2.922,8,8,0,0,0-9.561,11.8,71.33,71.33,0,0,1,11.209,34.739l-4.226-4.08a71.583,71.583,0,0,1-21.255-42.747,8,8,0,0,0-11.242-6.323,71.591,71.591,0,0,1-47.369,4.086l-5.684-1.476A71.483,71.483,0,0,1,305.146,355.256Zm-24.084,92.89A122.63,122.63,0,1,0,234.6,281.063,121.881,121.881,0,0,0,281.062,448.146ZM248.526,288.932a106.6,106.6,0,1,1,40.406,145.283A106.7,106.7,0,0,1,248.526,288.932ZM40,496H328a8,8,0,0,0,2.344-.351c3.587.254,7.185.394,10.79.394a155.394,155.394,0,0,0,41.662-5.722A153.588,153.588,0,0,0,475.987,417.4c41.923-74.228,15.642-168.725-58.585-210.648a154.714,154.714,0,0,0-156.9,2.893A36.006,36.006,0,0,0,236,200H207.713a35.955,35.955,0,0,1-34.152-24.616L159.59,133.47a8,8,0,0,0-13.569-2.785L89.341,194.45a36.95,36.95,0,0,0-2.685,45.713A34.048,34.048,0,0,0,56,274v14H40a8,8,0,0,0-8,8v25.376A24.039,24.039,0,0,0,16,344V472A24.027,24.027,0,0,0,40,496ZM341.6,202.792a137.773,137.773,0,0,1,67.929,17.894c66.546,37.584,90.107,122.3,52.523,188.848A138.6,138.6,0,1,1,341.6,202.792ZM72,274a18.021,18.021,0,0,1,18-18h26.981a8,8,0,0,0,0-16A20.981,20.981,0,0,1,101.3,205.08l47.486-53.423,9.6,28.787A51.936,51.936,0,0,0,207.713,216H236a19.99,19.99,0,0,1,10.72,3.129A153.249,153.249,0,0,0,224.62,240H200a8,8,0,0,0,0,16h12.479q-3,4.537-5.725,9.339A156.527,156.527,0,0,0,196.245,288H72ZM48,304H191.282a152.571,152.571,0,0,0-3.106,16H48ZM32,344a8.009,8.009,0,0,1,8-8H186.8a155.062,155.062,0,0,0,5.625,46.8c.112.4.235.8.351,1.2H32Zm0,56H198.3a153.1,153.1,0,0,0,31.02,48H32Zm0,64s214.727-.034,215.082-.082a156.778,156.778,0,0,0,18.257,12.069c2.509,1.417,5.052,2.744,7.615,4.013H40a8.009,8.009,0,0,1-8-8ZM176,248a8,8,0,0,1-8,8H152a8,8,0,0,1,0-16h16A8,8,0,0,1,176,248ZM80,360a8,8,0,0,1-8,8H56a8,8,0,0,1,0-16H72A8,8,0,0,1,80,360Zm80,0a8,8,0,0,1-8,8H104a8,8,0,0,1,0-16h48A8,8,0,0,1,160,360Zm80-248H224V96h16Zm0,48H224V144h16Zm-24-24H200V120h16Zm48,0H248V120h16ZM160,40H144V24h16ZM144,56h16V72H144Zm0,0H128V40h16Zm16,0V40h16V56ZM72,128H56V104H72ZM56,144H72v24H56Zm0,0H40V128H56Zm16,0V128H88v16Z" style="fill:url(#linear-gradient)"/></g></svg>
