<svg viewBox="0 0 120 120" fill="none" xmlns="http://www.w3.org/2000/svg">
  <path d="M102.72 37.86a4.5 4.5 0 0 1-9 0 4.5 4.5 0 0 1 9 0zM89.23 51.27a4.5 4.5 0 0 1-9 0 4.5 4.5 0 0 1 9 0zM107.21 69.14a4.5 4.5 0 0 1-8.99 0 4.5 4.5 0 0 1 9 0zM20.43 72.26a4.37 4.37 0 0 1-6.3 0 4.3 4.3 0 0 1 0-6.25 4.37 4.37 0 0 1 6.3 0c1.8 1.56 1.8 4.47 0 6.25zM56.85 59.3a4.5 4.5 0 0 1-9 0 4.5 4.5 0 0 1 9 0zM82.26 84.55a4.5 4.5 0 0 1-9 0 4.5 4.5 0 0 1 9 0z" stroke="#B77D43" stroke-width=".75" stroke-miterlimit="10" stroke-linecap="round" stroke-linejoin="round"/>
  <path d="M49.2 56.18c-5.16 5.14-13.7 5.14-19.1 0-5.17-5.14-5.17-13.63 0-18.99 5.17-5.13 13.71-5.13 19.1 0 5.18 5.37 5.18 13.85 0 19zM78.66 72.04a13.49 13.49 0 0 1-26.98 0c0-7.37 6.07-13.4 13.5-13.4 7.41 0 13.48 5.8 13.48 13.4zM87.88 54.4L99.34 66M75.74 37.86a4.5 4.5 0 0 1-9 0 4.5 4.5 0 0 1 9 0zM74.39 41l6.97 7.14M35.27 82.54a4.5 4.5 0 0 1-9 0 4.5 4.5 0 0 1 9 0zM20.43 72.26l6.97 7.15M30.1 56.18l-9.67 9.83M73.94 61.77l7.64-7.38M87.88 48.14l7.2-7.15M39.77 24.24v-6.26M50.33 27.37l4.5-4.47M30.77 95.72v6.48M21.1 91.92l-4.5 4.47M40.22 91.92l4.5 4.47" stroke="#B77D43" stroke-width=".75" stroke-miterlimit="10" stroke-linecap="round" stroke-linejoin="round"/>
  <path d="M53.87 26.02a10.47 10.47 0 0 1-3.74 2.27c-.6.2-1-.22-.76-.82.4-1.03 1.13-2.51 2.4-3.78a9.89 9.89 0 0 1 3.74-2.27c.6-.2 1 .22.76.82a11.44 11.44 0 0 1-2.4 3.78zM40.85 21.09a10.47 10.47 0 0 1-1.03 4.25c-.28.56-.87.55-1.12-.04a11.06 11.06 0 0 1-.98-4.38c0-1.8.58-3.31 1.04-4.25.28-.56.86-.55 1.12.05.44 1.01.97 2.6.97 4.37zM19.71 95.75a10.47 10.47 0 0 1-3.97 1.84c-.62.13-.97-.33-.66-.9.52-.98 1.4-2.38 2.81-3.5a9.88 9.88 0 0 1 3.97-1.83c.62-.13.97.33.66.9-.52.98-1.43 2.38-2.8 3.49zM32.82 99.07a10.47 10.47 0 0 1-1 4.26c-.27.57-.86.56-1.11-.03-.45-1.01-1.01-2.57-1.02-4.37a9.88 9.88 0 0 1 1-4.26c.27-.56.85-.56 1.11.04.45 1 1 2.6 1.02 4.36zM43.74 93a10.47 10.47 0 0 1 2.15 3.8c.18.61-.25 1-.84.74a11.06 11.06 0 0 1-3.7-2.52 9.88 9.88 0 0 1-2.15-3.82c-.18-.6.25-1 .84-.73 1.02.44 2.5 1.25 3.7 2.53z" fill="#EE9D16"/>
</svg>
