<svg viewBox="0 0 120 120" fill="none" xmlns="http://www.w3.org/2000/svg">
  <path d="M98.68 98.86a54.58 54.58 0 0 0 16.1-38.69c0-14.7-5.77-28.35-16.1-38.68A54.59 54.59 0 0 0 60 5.39a54.99 54.99 0 0 0-38.68 15.75 54.72 54.72 0 0 0 0 77.37A54.59 54.59 0 0 0 60 114.61c14.53 0 28.35-5.6 38.68-15.75zm-77.52-77.7A54.23 54.23 0 0 1 60 5c14.1 0 28.2 5.33 38.85 15.98a55.08 55.08 0 0 1 0 77.86A54.22 54.22 0 0 1 60 115a54.77 54.77 0 0 1-38.84-15.98 55.08 55.08 0 0 1 0-77.86z" fill="#000" stroke="#B77D43"/>
  <path d="M73.7 32.25H45.95M66.76 77.34c0 1.91-1.56 3.47-3.46 3.47a3.48 3.48 0 0 1-3.47-3.47c0-1.9 1.56-3.47 3.47-3.47 1.9 0 3.46 1.57 3.46 3.47zM59.83 63.47c0 1.9-1.56 3.47-3.47 3.47a3.48 3.48 0 0 1-3.47-3.47c0-1.9 1.56-3.47 3.47-3.47 1.9 0 3.47 1.56 3.47 3.47zM52.89 84.28c0 1.9-1.56 3.47-3.47 3.47a3.48 3.48 0 0 1-3.47-3.47c0-1.9 1.56-3.47 3.47-3.47 1.9 0 3.47 1.56 3.47 3.47zM43.87 73.88h32.09" stroke="#B77D43" stroke-width=".75" stroke-miterlimit="10" stroke-linecap="round" stroke-linejoin="round"/>
  <path d="M80.12 85.15L66.76 49.59V32.25H52.9v17.34L39.53 85.15a6.96 6.96 0 0 0 6.42 9.54h27.92a6.96 6.96 0 0 0 6.94-6.94c-.17-.87-.34-1.73-.7-2.6z" stroke="#B77D43" stroke-width=".75" stroke-miterlimit="10" stroke-linecap="round" stroke-linejoin="round"/>
  <path d="M79.6 83.59l17.69 17.52M21.67 19.94l30.7 30.87" stroke="#B77D43" stroke-width=".75" stroke-miterlimit="10" stroke-linejoin="round"/>
  <path d="M51.69 23.88a9.52 9.52 0 0 1 1.8 3.55c.15.55-.26.9-.79.63-.9-.44-2.2-1.2-3.27-2.43a8.99 8.99 0 0 1-1.8-3.55c-.15-.56.26-.9.79-.63.9.44 2.22 1.22 3.27 2.43zM69.4 23.88a9.52 9.52 0 0 0-1.8 3.55c-.14.55.27.9.8.63.9-.44 2.2-1.2 3.27-2.43a8.99 8.99 0 0 0 1.8-3.55c.15-.56-.26-.9-.8-.63a10.4 10.4 0 0 0-3.26 2.43zM62.46 21.16c-.05 1.59-.57 3-1 3.85-.25.51-.79.5-1-.05-.4-.93-.87-2.36-.85-3.99a9 9 0 0 1 1-3.85c.26-.51.79-.5 1.01.05.39.93.85 2.38.84 3.99z" fill="#EE9D16"/>
</svg>
