<svg viewBox="0 0 120 120" fill="none" xmlns="http://www.w3.org/2000/svg">
  <path d="M85.61 70.24l-15.37 10.1-15.36-10.1v-20.2l15.36-10.1 15.37 10.1v20.2z" stroke="#B77D43" stroke-width=".75" stroke-miterlimit="10" stroke-linecap="round" stroke-linejoin="round"/>
  <path d="M54.88 50.04l15.36 10.1 15.37-10.1M70.24 60.14v20.2M54.88 50.04L39.5 39.94V19.72l15.37-10.1 15.36 10.1v20.2" stroke="#B77D43" stroke-width=".75" stroke-miterlimit="10" stroke-linecap="round" stroke-linejoin="round"/>
  <path d="M39.51 19.73l15.37 10.1 15.36-10.1M54.88 29.83v20.2M70.24 79.79v20.48M85.61 70.24l15.37 10.1v20.22l-15.37 10.1-15.37-10.1" stroke="#B77D43" stroke-width=".75" stroke-miterlimit="10" stroke-linecap="round" stroke-linejoin="round"/>
  <path d="M70.24 80.35l15.37 10.1 15.37-10.1" stroke="#B77D43" stroke-width=".75" stroke-miterlimit="10" stroke-linecap="round" stroke-linejoin="round"/>
  <path d="M26.2 42.18h-7.18M30.04 71.37l5.12-5.62M28.5 54.8l-6.66 3.1M28.5 29.27l-6.66-3.09" stroke="#B77D43" stroke-width=".75" stroke-miterlimit="10" stroke-linecap="round" stroke-linejoin="bevel"/>
  <path d="M25.42 26.04c1.56.8 2.72 2 3.35 2.82.38.5.11 1.02-.53.98-1.1-.06-2.75-.26-4.36-1.06a9.88 9.88 0 0 1-3.35-2.81c-.38-.5-.1-1.03.54-.99 1.1.06 2.77.29 4.35 1.06zM23.08 40.45c1.75.1 3.29.73 4.2 1.22.55.3.52.9-.1 1.12-1.02.4-2.6.87-4.4.79a9.89 9.89 0 0 1-4.2-1.22c-.56-.3-.52-.9.09-1.12 1.03-.4 2.65-.85 4.4-.79zM25.03 55.19c1.62-.67 3.27-.79 4.31-.74.63.04.85.58.4 1.04-.75.81-1.97 1.93-3.62 2.64a9.88 9.88 0 0 1-4.31.73c-.63-.03-.86-.57-.4-1.04.75-.8 2-1.93 3.62-2.63zM31.87 67.04a10.47 10.47 0 0 1 3.75-2.25c.6-.2 1 .22.76.82a11.06 11.06 0 0 1-2.42 3.77 9.88 9.88 0 0 1-3.75 2.26c-.6.2-1-.23-.76-.83a11.44 11.44 0 0 1 2.42-3.77z" fill="#EE9D16"/>
</svg>
